# xmcd
#
# Track frame offsets:
#	150
#	15242
#	30646
#	46189
#	60753
#	77564
#	94481
#	113992
#	132189
#	151131
#	167682
#	190279
#	203085
#	215832
#	233719
#	246099
#	256650
#	269908
#
# Disc length: 3770 seconds
#
# Revision: 1
# Processed by: cddbd v1.5.2PL0 Copyright (c) Steve Scherf et al.
# Submitted via: audiograbber 1.83.01
#
DISCID=eb0eb812
DTITLE=Various Artist - CMAA Winners 2017 [Disc 1]
DYEAR=2017
DGENRE=Country
TTITLE0=The Wolfe Brothers - This Crazy Life
TTITLE1=Troy Cassar-Daley - Things I Carry Around
TTITLE2=Travis Collins - Just Another Girl
TTITLE3=Sara Storer - Purple Cockies
TTITLE4=Graeme Connors - 60 Summers
TTITLE5=Bennett, Bowtell and Urquhart - Goulburn Valley Woman
TTITLE6=Caitlyn Shadbolt - Running In Circles
TTITLE7=Luke O'Shea - The Old Man's Shed
TTITLE8=Michael Fix - Cosmopolitan Blues
TTITLE9=Fanny Lumsden - Land Of Gold
TTITLE10=O'Shea feat. Rob Hurst - The Truth Walks Slowly (In The Countryside)
TTITLE11=Catherine Britt feat. Kasey Chambers, Beccy Cole, Lyn Bowtell, Josh Py
TTITLE11=ke, Wes Carr, Wendy Matthews - F U Cancer
TTITLE12=Amber Lawrence - Happy Ever After
TTITLE13=Adam Harvey feat. Lyn Bowtell - Bartender Blues
TTITLE14=Kristy Cox - Another Weary Mile
TTITLE15=Stuie French - Song For Manaia
TTITLE16=Sunny Cowgirls - Cowboy
TTITLE17=The Weeping Willows - River Of Gold
EXTD=
EXTT0=
EXTT1=
EXTT2=
EXTT3=
EXTT4=
EXTT5=
EXTT6=
EXTT7=
EXTT8=
EXTT9=
EXTT10=
EXTT11=
EXTT12=
EXTT13=
EXTT14=
EXTT15=
EXTT16=
EXTT17=
PLAYORDER=
